<svg height="405pt" viewBox="-124 0 405 405.83168" width="405pt" xmlns="http://www.w3.org/2000/svg"><path d="m20.894531 330.738281h116.054688v34.132813h-116.054688zm0 0" fill="#feda38"/><path d="m136.949219 371.699219h-116.054688c-3.769531 0-6.824219-3.058594-6.824219-6.828125v-34.132813c0-3.769531 3.054688-6.828125 6.824219-6.828125h116.054688c3.769531 0 6.828125 3.058594 6.828125 6.828125v34.132813c0 3.769531-3.058594 6.828125-6.828125 6.828125zm-109.226563-13.652344h102.398438v-20.480469h-102.398438zm0 0"/><path d="m7.242188 364.871094h143.359374v34.132812h-143.359374zm0 0" fill="#feda38"/><path d="m150.601562 405.832031h-143.359374c-3.769532 0-6.828126-3.058593-6.828126-6.828125v-34.132812c0-3.769532 3.058594-6.824219 6.828126-6.824219h143.359374c3.769532 0 6.828126 3.054687 6.828126 6.824219v34.132812c0 3.769532-3.058594 6.828125-6.828126 6.828125zm-136.53125-13.652343h129.707032v-20.480469h-129.707032zm0 0"/><path d="m150.601562 337.566406h-143.359374v-168.960937l12.503906-22.1875h118.351562l12.503906 22.1875zm0 0" fill="#feda38"/><path d="m150.601562 344.390625h-143.359374c-3.769532 0-6.828126-3.054687-6.828126-6.824219v-168.960937c0-1.175781.304688-2.328125.882813-3.351563l12.503906-22.1875c1.207031-2.148437 3.480469-3.476562 5.945313-3.476562h118.351562c2.464844 0 4.738282 1.328125 5.949219 3.476562l12.5 22.1875c.578125 1.023438.882813 2.175782.882813 3.351563v168.960937c0 3.769532-3.058594 6.824219-6.828126 6.824219zm-136.53125-13.652344h129.707032v-160.34375l-9.667969-17.148437h-110.375l-9.664063 17.148437zm0 0"/><path d="m136.949219 146.417969h-116.054688v-54.328125c0-21.90625 8.289063-43 23.199219-59.046875l17.488281-18.820313c9.109375-9.804687 24.605469-9.875 33.804688-.152344l17.835937 18.855469c15.234375 16.105469 23.726563 37.4375 23.726563 59.609375zm0 0" fill="#fcad3a"/><path d="m136.949219 153.246094h-116.054688c-3.769531 0-6.824219-3.058594-6.824219-6.828125v-54.328125c0-23.710938 8.886719-46.332032 25.027344-63.695313l17.484375-18.820312c5.621094-6.046875 13.582031-9.5390628 21.839844-9.574219h.132813c8.210937 0 16.144531 3.414062 21.792968 9.375l17.835938 18.863281c16.503906 17.445313 25.59375 40.277344 25.59375 64.296875v53.882813c0 3.769531-3.058594 6.828125-6.828125 6.828125zm-109.226563-13.65625h102.398438v-47.054688c0-20.515625-7.761719-40.015625-21.859375-54.921875l-17.835938-18.855469c-3.121093-3.296874-7.332031-5.105468-11.867187-5.105468-.023438 0-.050782 0-.078125 0-4.5625.019531-8.789063 1.875-11.898438 5.21875l-17.488281 18.820312c-13.78125 14.828125-21.371094 34.148438-21.371094 54.398438zm0 0"/><path d="m116.46875 218.953125c-3.769531 0-6.828125-3.058594-6.828125-6.828125v-11.09375c0-3.769531 3.058594-6.828125 6.828125-6.828125s6.828125 3.058594 6.828125 6.828125v11.09375c0 3.769531-3.058594 6.828125-6.828125 6.828125zm0 0"/><path d="m116.46875 317.085938c-3.769531 0-6.828125-3.058594-6.828125-6.828126v-63.144531c0-3.773437 3.058594-6.828125 6.828125-6.828125s6.828125 3.054688 6.828125 6.828125v63.144531c0 3.769532-3.058594 6.828126-6.828125 6.828126zm0 0"/></svg>